<svg id="Capa_1" data-name="Capa 1" xmlns="http://www.w3.org/2000/svg" viewBox="0 0 308.68 178.47"><defs><style>.cls-1{fill:none;stroke:#000;stroke-linecap:round;stroke-width:1.5px;}</style></defs><path d="M158.25,24.37a37.85,37.85,0,0,1-6.67-.77,8.84,8.84,0,0,0-1.19,1.49c-1.5,2.57-2.8,6.75-3.76,9.78C143.26,46,141.3,51.48,134.51,51.36a6.53,6.53,0,0,1-6.63-6.9,8.41,8.41,0,0,1,8.28-8.13.79.79,0,0,1,.81.8.79.79,0,0,1-.81.81,6.89,6.89,0,0,0-6.67,6.52,4.94,4.94,0,0,0,5,5.29c6.52.08,7.9-7.36,10.59-15.38A52.91,52.91,0,0,1,149,24.29c.19-.35.46-.69.69-1-3.38-.73-8.4-2.68-12.73-2.68-3.95,0-6.29,1.92-6.29,5.18,0,2.68,1.8,4,4.45,4a8.74,8.74,0,0,0,3.49-.8,1.07,1.07,0,0,1,.38-.08.8.8,0,0,1,.77.81.82.82,0,0,1-.46.73,10.48,10.48,0,0,1-4.22.95c-3.57,0-6-2.11-6-5.59,0-4.3,3-6.83,8-6.83,4.11,0,9.67,2.15,14,2.95a11.62,11.62,0,0,1,7.09-2.45c2.23,0,4.64.88,4.64,2.64S160.93,24.37,158.25,24.37ZM161.16,22c0-.58-1.91-1-3-1a10.78,10.78,0,0,0-4.75,1.23,32.85,32.85,0,0,0,4.87.49C160.05,22.75,161.16,22.56,161.16,22Z"/><path d="M169.14,40.66a1.18,1.18,0,0,1-.08.31c-2.6,5.79-4.41,8.05-7,8.05-1.88,0-2.76-1.34-2.76-3.22,0-3.53,3-8.44,3-11.39a1.78,1.78,0,0,0-2-2c-1,0-2,.88-3,2.11-2.41,3.06-2.76,4.56-6.17,13.92a.83.83,0,0,1-1,.53.8.8,0,0,1-.49-1c3.64-10.13,6.94-19.25,8.2-23a.8.8,0,0,1,.77-.5.81.81,0,0,1,.77,1.07c-.35,1-1.19,3.42-2.5,7.06a5.12,5.12,0,0,1,3.49-1.8c2.72,0,3.61,1.57,3.61,3.6,0,2.92-3,8.63-3,11.39,0,1.11.34,1.61,1.15,1.61,1.84,0,3.33-2.15,5.52-7.09a.82.82,0,0,1,.73-.5,1.37,1.37,0,0,1,.34.07A.85.85,0,0,1,169.14,40.66Z"/><path d="M181.3,40.66a.89.89,0,0,1-.08.31c-2.49,5.52-5.41,8.05-9.28,8.05-3.18,0-5.1-2.11-5-5.25.23-4.91,4.21-12.89,8.74-12.89,1.92,0,3.26,1,3.26,2.84,0,4.07-5.71,6.52-10,7.56a11.1,11.1,0,0,0-.42,2.53c-.08,2.18,1.15,3.52,3.45,3.6,3.14.08,5.6-2.15,7.74-7.09a.88.88,0,0,1,1.08-.43A.92.92,0,0,1,181.3,40.66Zm-4-6.94c0-1-.81-1.23-1.65-1.23-2.65,0-4.87,4-6.1,6.95C172.74,38.44,177.31,36.56,177.31,33.72Z"/><path d="M38.62,49.2a15.56,15.56,0,0,1,5.84.86A22.73,22.73,0,0,1,48,51.93c.57.34,1,.59,1.4.76a2.44,2.44,0,0,0,1,.25,1.09,1.09,0,0,0,1-.79A10,10,0,0,0,52,49.77h1.66c0,.87-.11,1.89-.18,3.07s-.12,2.72-.15,4.64,0,4.44,0,7.56H51.66a21.65,21.65,0,0,0-1.55-6.84,13.11,13.11,0,0,0-3.89-5.4,10,10,0,0,0-6.52-2.09,8.68,8.68,0,0,0-6.08,2.2,7.44,7.44,0,0,0-2.41,5.8A8.58,8.58,0,0,0,32.79,64a17.1,17.1,0,0,0,4.36,4q2.77,1.83,6.3,4.07t6.48,4.57a18.81,18.81,0,0,1,4.54,5,12.58,12.58,0,0,1,1.66,6.62A13,13,0,0,1,53.93,96a13.25,13.25,0,0,1-5.87,4.57A21,21,0,0,1,40,102.06a19.47,19.47,0,0,1-6.41-.86,27.86,27.86,0,0,1-4-1.8,5.24,5.24,0,0,0-2.45-1,1.08,1.08,0,0,0-1,.79,10,10,0,0,0-.54,2.38H23.86c.1-1.06.15-2.29.18-3.71s.05-3.28.07-5.58,0-5.21,0-8.72H25.8a32.71,32.71,0,0,0,1.62,8.36,13.81,13.81,0,0,0,4.11,6.23,11.07,11.07,0,0,0,7.38,2.34,10.89,10.89,0,0,0,4.54-.94,7.78,7.78,0,0,0,3.39-3,9.46,9.46,0,0,0,1.29-5.19,9.56,9.56,0,0,0-1.4-5.18,16.2,16.2,0,0,0-3.89-4.14A67.38,67.38,0,0,0,37,78.15Q33.65,76,30.7,73.83a17.73,17.73,0,0,1-4.72-5A12.89,12.89,0,0,1,24.22,62a11.93,11.93,0,0,1,2.05-7.21,12.4,12.4,0,0,1,5.33-4.17A17.93,17.93,0,0,1,38.62,49.2Z"/><path d="M68.11,63.81v.89a2.41,2.41,0,0,0-1.51.52,1.52,1.52,0,0,0-.43,1.2,8,8,0,0,0,.43,2l6.9,20.62-1.16,1.3L78.4,71.52l.67,1.11-7.26,22.9H70.29l-9.62-28a4.33,4.33,0,0,0-1.43-2.25,3.26,3.26,0,0,0-1.55-.6v-.89l2.54.09c1,0,1.93.05,2.85.05,1.07,0,2,0,2.92-.05Zm31.37,0v.89a4.53,4.53,0,0,0-1.92,1.18,7.53,7.53,0,0,0-1.74,3.19L87.63,95.53H86.11L76.67,67.42a4.39,4.39,0,0,0-1.23-2.16,2.58,2.58,0,0,0-1.31-.56v-.89l2.31.09c.92,0,1.81.05,2.68.05,1.21,0,2.35,0,3.4-.05L85,63.81v.89a8.44,8.44,0,0,0-2.12.29A1.19,1.19,0,0,0,82,66a6.33,6.33,0,0,0,.43,2.45L89,88.58l-.76,1,5.61-17.68a13.31,13.31,0,0,0,.83-4.3,2.6,2.6,0,0,0-1-2.19,5.23,5.23,0,0,0-2.78-.69v-.89l2.67.09c.89,0,1.75.05,2.58.05s1.38,0,1.9-.05Z"/><path d="M113.24,63.81v.89A7,7,0,0,0,111,65a1.67,1.67,0,0,0-1,1.07,8,8,0,0,0-.27,2.42v22.1A8.09,8.09,0,0,0,110,93a1.63,1.63,0,0,0,1,1.07,8.72,8.72,0,0,0,2.23.35v.9c-.71-.06-1.61-.1-2.69-.12l-3.32,0-3.5,0c-1.08,0-2,.06-2.65.12v-.9a8.77,8.77,0,0,0,2.27-.35,1.54,1.54,0,0,0,1-1.07,8.57,8.57,0,0,0,.25-2.41V68.53a8.46,8.46,0,0,0-.25-2.42,1.58,1.58,0,0,0-1-1.07,7.19,7.19,0,0,0-2.25-.34v-.89l2.65.09c1.08,0,2.25.05,3.5.05s2.23,0,3.32-.05Z"/><path d="M152.89,63.81v.89a7.13,7.13,0,0,0-2.27.34,1.6,1.6,0,0,0-1,1.07,8.93,8.93,0,0,0-.24,2.42v22.1a9,9,0,0,0,.24,2.41,1.56,1.56,0,0,0,1,1.07,8.85,8.85,0,0,0,2.27.35v.9q-1.11-.09-2.76-.12l-3.34,0-3.52,0c-1.1,0-2,.06-2.63.12v-.9a9.21,9.21,0,0,0,2.3-.35A1.59,1.59,0,0,0,144,93a8.09,8.09,0,0,0,.27-2.41V66.26l.22.09-11,29.18h-.71L121.31,66.66V89.47a12.93,12.93,0,0,0,.26,2.92,2.21,2.21,0,0,0,1.16,1.5,7.62,7.62,0,0,0,2.72.57v.9q-.84-.09-2.16-.12l-2.47,0-2.23,0q-1.11,0-1.83.12v-.9a5.64,5.64,0,0,0,2.23-.55,2.25,2.25,0,0,0,1-1.45,12.11,12.11,0,0,0,.26-2.81V68.53a8.39,8.39,0,0,0-.26-2.42A1.69,1.69,0,0,0,119,65a7,7,0,0,0-2.23-.34v-.89l1.83.09c.74,0,1.48.05,2.23.05s1.73,0,2.6-.05l2.25-.09,9.85,25.31-.85.58L144.34,64h2.45c1.13,0,2.24,0,3.34-.05Z"/><path d="M192.55,63.81v.89a7.2,7.2,0,0,0-2.28.34,1.6,1.6,0,0,0-1,1.07,8.93,8.93,0,0,0-.24,2.42v22.1a9,9,0,0,0,.24,2.41,1.56,1.56,0,0,0,1,1.07,8.94,8.94,0,0,0,2.28.35v.9c-.75-.06-1.67-.1-2.77-.12l-3.34,0-3.52,0c-1.1,0-2,.06-2.63.12v-.9a9.21,9.21,0,0,0,2.3-.35,1.63,1.63,0,0,0,1-1.07,8.5,8.5,0,0,0,.26-2.41V66.26l.23.09-11,29.18h-.72L161,66.66V89.47a12.28,12.28,0,0,0,.27,2.92,2.17,2.17,0,0,0,1.15,1.5,7.62,7.62,0,0,0,2.72.57v.9q-.84-.09-2.16-.12l-2.47,0-2.23,0q-1.11,0-1.83.12v-.9a5.64,5.64,0,0,0,2.23-.55,2.22,2.22,0,0,0,1-1.45,11.58,11.58,0,0,0,.26-2.81V68.53a8,8,0,0,0-.26-2.42,1.66,1.66,0,0,0-1-1.07,7,7,0,0,0-2.23-.34v-.89l1.83.09c.74,0,1.49.05,2.23.05s1.73,0,2.6-.05l2.25-.09,9.85,25.31-.85.58L184,64h2.45c1.13,0,2.25,0,3.34-.05Z"/><path d="M208.18,63.81v.89A6.88,6.88,0,0,0,206,65a1.66,1.66,0,0,0-1,1.07,8,8,0,0,0-.27,2.42v22.1a8.09,8.09,0,0,0,.27,2.41,1.62,1.62,0,0,0,1,1.07,8.55,8.55,0,0,0,2.22.35v.9c-.71-.06-1.61-.1-2.69-.12l-3.32,0-3.5,0c-1.08,0-2,.06-2.65.12v-.9a8.77,8.77,0,0,0,2.27-.35,1.57,1.57,0,0,0,1-1.07,9,9,0,0,0,.24-2.41V68.53a8.93,8.93,0,0,0-.24-2.42,1.62,1.62,0,0,0-1-1.07A7.19,7.19,0,0,0,196,64.7v-.89l2.65.09c1.09,0,2.25.05,3.5.05s2.23,0,3.32-.05Z"/><path d="M240.13,63.81v.89a5.13,5.13,0,0,0-2.27.54,2.19,2.19,0,0,0-1,1.45,12.74,12.74,0,0,0-.24,2.82v26h-1.47L216.25,68.09V89.47a12.28,12.28,0,0,0,.27,2.92,2.17,2.17,0,0,0,1.15,1.5,7.62,7.62,0,0,0,2.72.57v.9q-.84-.09-2.16-.12l-2.47,0-2.23,0q-1.11,0-1.83.12v-.9a5.64,5.64,0,0,0,2.23-.55,2.22,2.22,0,0,0,1-1.45,11.58,11.58,0,0,0,.26-2.81V68.53a8,8,0,0,0-.26-2.42,1.66,1.66,0,0,0-1-1.07,7,7,0,0,0-2.23-.34v-.89l1.83.09c.74,0,1.49.05,2.23.05s1.29,0,1.91-.05l1.65-.09,16.26,23.26V69.69a11.19,11.19,0,0,0-.29-2.94,2.29,2.29,0,0,0-1.18-1.49,6.67,6.67,0,0,0-2.67-.56v-.89l2.14.09c.89,0,1.72.05,2.49.05s1.49,0,2.23-.05Z"/><path d="M264.48,50.42a17.21,17.21,0,0,1,7.33,1.34,28.51,28.51,0,0,1,5.13,3.12,2.72,2.72,0,0,0,1.37.68c.87,0,1.44-1.39,1.72-4.18h1.57q-.14,2.61-.2,6.27c0,2.44-.07,5.7-.07,9.76h-1.58a47.62,47.62,0,0,0-1.27-6.09,11,11,0,0,0-2.7-4.8A12.31,12.31,0,0,0,271,53.1a15.61,15.61,0,0,0-6.06-1.24,11.47,11.47,0,0,0-6.3,1.75,14.24,14.24,0,0,0-4.62,5,26.46,26.46,0,0,0-2.88,7.56,43.19,43.19,0,0,0-1,9.56q0,12.33,3.8,18t11.47,5.72a10.62,10.62,0,0,0,3.8-.62,14.46,14.46,0,0,0,2.57-1.23A4.35,4.35,0,0,0,273.25,96a5.49,5.49,0,0,0,.34-2.09V87.27a13.26,13.26,0,0,0-.52-4.34,3.06,3.06,0,0,0-2-1.92,15.3,15.3,0,0,0-4.38-.58V79.06c.87,0,1.89.08,3.08.1l3.74.07,3.52,0c1.65,0,3.14,0,4.49-.07s2.45-.09,3.32-.13v1.37a5,5,0,0,0-2.16.47,2.29,2.29,0,0,0-1,1.65,21.75,21.75,0,0,0-.23,3.77V99.88h-1.38a9.85,9.85,0,0,0-.51-2.54c-.3-.91-.74-1.37-1.33-1.37a2.68,2.68,0,0,0-1,.21,11.94,11.94,0,0,0-1.74,1,24.2,24.2,0,0,1-5,2.63,16.51,16.51,0,0,1-5.9,1,25.31,25.31,0,0,1-12.53-2.91,19,19,0,0,1-7.91-8.43,29.53,29.53,0,0,1-2.71-13.12,29.93,29.93,0,0,1,3-13.76,21.63,21.63,0,0,1,20-12.2Z"/><path d="M129.39,112.49a43.45,43.45,0,0,0,2.69,6.81c1.85,4.07,3.76,8.32,3.76,12.92,0,9.39-7,15.73-16,15.73-8,0-13.64-5.56-13.64-12.86,0-7.12,5.62-13,12.08-13a8.36,8.36,0,0,1,8.37,8.61,4.07,4.07,0,0,1-.12,1.07,1.21,1.21,0,0,1-1.13.9,1.28,1.28,0,0,1-1.32-1.38,5.89,5.89,0,0,0-5.8-6.69c-5.26,0-9.57,5-9.57,10.7,0,6,4.91,10.17,11.31,10.17a12.85,12.85,0,0,0,13.33-13.22c0-4.13-1.79-8.07-3.53-11.9a52.69,52.69,0,0,1-2.87-7.35c-.89.06-1.85.12-2.93.12-7.89,0-13.69-3.47-17.1-10.47a1.78,1.78,0,0,1-.12-.6,1.24,1.24,0,0,1,1.26-1.19,1.23,1.23,0,0,1,1.13.71c2.93,6.1,7.9,9,14.71,9,1,0,1.8-.06,2.57-.12,0-.53-.12-1-.12-1.55,0-4.19,2.46-8.67,6.52-8.67,2.52,0,3.83,2,3.71,4.42C136.38,108.18,133.81,111.11,129.39,112.49Zm3.22-9.75c-2.45,0-3.7,3.41-3.7,6.1A7.26,7.26,0,0,0,129,110c5-1.86,5.08-4.37,5.08-5.33C134.05,103.4,133.57,102.74,132.61,102.74Z"/><path d="M165.18,132a1.29,1.29,0,0,1-.11.47c-1.25,4.4-5.12,8.74-9.22,8.74a5.86,5.86,0,0,1-4.1-1.54c-2.44,3.27-5.47,5.65-8.92,5.53-2.26-.12-3.63-.89-4.28-2.5-2.68,7.43-5.12,14.21-5.71,16a1.22,1.22,0,0,1-1.19.83,1.25,1.25,0,0,1-1.19-1.67l6.66-18.61c3.39-9.27,6.84-18.84,7.55-20.69l.36-1a1.22,1.22,0,0,1,1.19-.83,1.25,1.25,0,0,1,1.19,1.66l-.48,1.25c1.67-1.72,3.57-2.91,5.77-2.91,3.74,0,5,3.09,5,6.78,0,4.1-2.43,10.76-4.58,14a3.81,3.81,0,0,0,2.8,1.19c3.15,0,5.89-3.87,6.84-7.2a1.28,1.28,0,0,1,1.13-.77,1.76,1.76,0,0,1,.53.12A1.21,1.21,0,0,1,165.18,132Zm-12.66.36a7.73,7.73,0,0,0-.3,1.54c1.73-3.62,2.92-7.49,2.92-10.46,0-2.5-.54-4.16-2.32-4.16-4.88,0-8.5,9.09-10.88,15.1-.89,2.49-1.31,3.27-1.31,5.23s.59,3,2.26,3.09c2.73.06,5.29-2.14,7.31-5.23a9.2,9.2,0,0,1-.12-5.77,1.21,1.21,0,0,1,1.19-.95A1.3,1.3,0,0,1,152.52,132.38Z"/><path d="M179.34,141.23a7,7,0,0,1-4.52-1.6c-2.2,3-5.23,5.41-8.09,5.41-3.86,0-5.17-2.56-5.17-6,0-6.9,3.09-12.67,5.05-15.88,2.5-4.16,5.41-6.24,8.39-6.24,3.92.12,5.94,2.79,5.94,6.36,0,3.74-1.9,9.57-4.64,14.21a3.65,3.65,0,0,0,3,1.25c2.49,0,4.57-2.26,6.66-7.2a1.21,1.21,0,0,1,1.13-.77,1.25,1.25,0,0,1,1.18,1.72C185.7,138.5,182.9,141.23,179.34,141.23Zm-3.63-8.85a5.91,5.91,0,0,0-.24,1.36,26.33,26.33,0,0,0,3-10.52c0-2.5-1.48-3.81-3.5-3.81-2.26,0-4.4,2.09-6.13,5.06-1.54,2.55-4.69,8.32-4.69,14.45,0,2.14.71,3.62,2.61,3.62,2.2,0,4.7-2.37,6.66-5.17a10.16,10.16,0,0,1-.12-5.65,1.26,1.26,0,1,1,2.44.66Z"/><path d="M200.8,132a1.75,1.75,0,0,1-.12.54C197.23,140,193.9,145,188.43,145c-2.85,0-4.4-2.14-4.4-5,0-2.2,1.49-7.38,3.39-12.25l3-8.5h-3.74a1.23,1.23,0,0,1-1.25-1.25,1.26,1.26,0,0,1,1.25-1.25h4.58c.12-.24,3-8.62,3.09-8.86a1.22,1.22,0,0,1,1.19-.83,1.25,1.25,0,0,1,1.19,1.66c.18-.35-2.38,6.9-2.8,8h4a1.25,1.25,0,0,1,1.24,1.25A1.22,1.22,0,0,1,198,119.3h-4.88c-.36,1.13-1.37,3.86-3.33,9.39-2.44,6.9-3.21,9.63-3.21,11.36s.71,2.49,1.9,2.49c4.28,0,7.14-4.93,9.93-11.06a1.45,1.45,0,0,1,1.19-.71,1.75,1.75,0,0,1,.54.12A1.34,1.34,0,0,1,200.8,132Z"/><line class="cls-1" x1="57.69" y1="102.06" x2="101.08" y2="102.06"/><line class="cls-1" x1="141.58" y1="102.06" x2="240.13" y2="102.06"/><line class="cls-1" x1="57.69" y1="54.52" x2="240.13" y2="54.52"/></svg>